<?xml version="1.0" encoding="UTF-8"?>
<svg version="1.1" xmlns="http://www.w3.org/2000/svg" width="612" height="207">
<path d="M0 0 C1.0981604 0.00580078 1.0981604 0.00580078 2.21850586 0.01171875 C10.29807753 0.13558315 18.25685749 1.1295595 26.25 2.25 C26.25 4.56 26.25 6.87 26.25 9.25 C15.36 9.25 4.47 9.25 -6.75 9.25 C-9.47474614 15.55786712 -9.47474614 15.55786712 -10.78515625 21.88671875 C-11.75433496 28.31490408 -12.94842313 34.68139699 -14.1875 41.0625 C-14.40486816 42.19236328 -14.62223633 43.32222656 -14.84619141 44.48632812 C-15.79385599 49.39701766 -16.75078609 54.30435391 -17.77734375 59.19921875 C-17.92308838 59.89877686 -18.06883301 60.59833496 -18.21899414 61.3190918 C-18.5955361 63.10987375 -18.98098581 64.8987764 -19.3671875 66.6875 C-19.99818041 69.23235372 -19.99818041 69.23235372 -18.75 71.25 C0.06 71.25 18.87 71.25 38.25 71.25 C39.57473292 67.93816769 40.52460432 65.49637093 41.1796875 62.1340332 C41.33324707 61.36005692 41.48680664 60.58608063 41.64501953 59.78865051 C41.80341309 58.96765366 41.96180664 58.1466568 42.125 57.30078125 C42.47381549 55.54879968 42.82277817 53.79684741 43.171875 52.04492188 C43.71424167 49.29339713 44.25411278 46.54141459 44.79101562 43.78881836 C45.31248883 41.1248014 45.84321923 38.46275672 46.375 35.80078125 C46.53339355 34.9737117 46.69178711 34.14664215 46.85498047 33.29450989 C48.02358965 27.47641035 48.02358965 27.47641035 50.25 25.25 C52.75 26.6875 52.75 26.6875 55.25 29.25 C55.83525274 36.6932143 54.41651733 43.55091413 52.875 50.8125 C52.65328125 51.89724609 52.4315625 52.98199219 52.203125 54.09960938 C48.42590126 72.39692557 48.42590126 72.39692557 44.25 77.25 C37.8284196 80.97081241 31.58932202 80.68553401 24.30859375 80.6484375 C23.06755386 80.65130768 21.82651398 80.65417786 20.54786682 80.65713501 C17.26376358 80.65969102 13.98009106 80.647676 10.69604492 80.63085938 C8.68760606 80.62500031 6.67955991 80.6308463 4.67114258 80.64111328 C0.8001083 80.65966342 -3.07034762 80.65739708 -6.94140625 80.6484375 C-8.73222374 80.65754654 -8.73222374 80.65754654 -10.55921936 80.6668396 C-21.09755417 80.57771306 -21.09755417 80.57771306 -25.75 77.25 C-30.51005825 70.10991262 -26.91719096 59.40299126 -25.4375 51.5 C-25.22416016 50.3140625 -25.01082031 49.128125 -24.79101562 47.90625 C-23.51885498 40.94924015 -22.04626964 34.0657137 -20.42163086 27.18310547 C-19.3951955 22.70051935 -18.60803644 18.18909108 -17.84570312 13.65429688 C-17.23530303 10.21354996 -16.54112618 7.27108407 -14.75 4.25 C-14.09 4.25 -13.43 4.25 -12.75 4.25 C-12.75 3.59 -12.75 2.93 -12.75 2.25 C-8.49986293 0.17435166 -4.64422737 -0.05971226 0 0 Z " fill="#B99EF3" transform="translate(130.75,36.75)"/>
<path d="M0 0 C2.67463186 2.10786463 3.9903978 3.52978714 5.078125 6.79296875 C4.17784912 7.82828601 3.25719465 8.8459104 2.328125 9.85546875 C1.56242187 10.70818359 1.56242187 10.70818359 0.78125 11.578125 C-0.921875 12.79296875 -0.921875 12.79296875 -2.99609375 12.5703125 C-4.921875 11.79296875 -4.921875 11.79296875 -6.984375 10.29296875 C-11.37634347 8.05026145 -16.01358225 7.63935601 -20.921875 7.79296875 C-23.19871493 8.68702463 -23.19871493 8.68702463 -24.921875 9.79296875 C-25.25613235 12.16671736 -25.25613235 12.16671736 -24.921875 14.79296875 C-21.62922417 18.12751081 -17.65521251 18.69768237 -13.234375 19.60546875 C-6.18803911 21.20712626 1.07009508 23.25658705 5.28515625 29.61328125 C7.29217912 35.13012245 6.68977293 41.69042899 5.078125 47.23046875 C1.6972357 51.56223316 -2.74873209 54.06858778 -7.921875 55.79296875 C-19.97764466 56.69361323 -28.109344 55.83424169 -38.046875 48.48046875 C-38.665625 47.92359375 -39.284375 47.36671875 -39.921875 46.79296875 C-39.44940858 42.540771 -37.14915123 40.4198215 -33.921875 37.79296875 C-30.11060652 37.67386661 -27.74161786 40.47933358 -24.921875 42.79296875 C-21.71413888 43.86221412 -19.29202682 43.95981831 -15.921875 43.98046875 C-14.87 43.99464844 -13.818125 44.00882813 -12.734375 44.0234375 C-9.71428812 44.00477801 -9.71428812 44.00477801 -6.921875 41.79296875 C-6.67171627 38.20939634 -6.67171627 38.20939634 -6.921875 34.79296875 C-7.58832031 34.61121094 -8.25476563 34.42945313 -8.94140625 34.2421875 C-10.88513983 33.71207834 -12.82777176 33.1779201 -14.76953125 32.640625 C-16.79026014 32.09725676 -18.81876245 31.58158516 -20.85546875 31.1015625 C-27.20829826 29.55961359 -33.32531097 27.81458306 -37.08203125 21.99609375 C-38.99951206 16.96605106 -38.79029483 10.72063561 -37.26953125 5.59375 C-34.85908356 0.82458097 -31.57839331 -1.04507632 -26.921875 -3.20703125 C-18.28730922 -5.87202069 -7.68481469 -4.82643849 0 0 Z " fill="#FCFCFC" transform="translate(258.921875,67.20703125)"/>
<path d="M0 0 C0.10957031 1.11117187 0.21914063 2.22234375 0.33203125 3.3671875 C1.18419296 11.51953449 2.14576521 19.2555096 5 27 C5.99 27 6.98 27 8 27 C12.44532468 18.48947342 16.65769097 10.36923611 19 1 C24.94 0.505 24.94 0.505 31 0 C32.19308729 4.77234916 31.12740835 7.55818436 29.5 12 C29.22591309 12.75821045 28.95182617 13.5164209 28.66943359 14.29760742 C26.15573435 21.00624631 22.90693757 26.99443141 19 33 C18.38253906 33.99515625 17.76507812 34.9903125 17.12890625 36.015625 C10.97707943 45.67040351 3.34738198 57.21753934 -8 61 C-9.56118428 61.06740865 -11.1250252 61.08514456 -12.6875 61.0625 C-13.89986328 61.04896484 -13.89986328 61.04896484 -15.13671875 61.03515625 C-15.75160156 61.02355469 -16.36648438 61.01195312 -17 61 C-16.125 53.25 -16.125 53.25 -15 51 C-13.02693289 50.27654206 -11.05322757 49.5546989 -9.07421875 48.84765625 C-5.48792617 47.38207152 -2.87333933 45.45556554 -0.875 42.125 C-1.04706561 39.19988465 -2.56958949 37.86991172 -4.578125 35.85546875 C-9.1469172 29.89344596 -9.80981812 23.04977847 -10.6875 15.8125 C-10.81705078 14.82830078 -10.94660156 13.84410156 -11.08007812 12.83007812 C-11.59357832 8.83347077 -12 5.0375975 -12 1 C-7.92855518 0.2244867 -4.13880432 -0.04637316 0 0 Z " fill="#C2ACF7" transform="translate(517,80)"/>
<path d="M0 0 C5.30871221 4.01390435 8.83863526 8.11445086 10.43359375 14.65234375 C10.62737417 18.08754204 9.98926129 21.52340964 9.5625 24.9375 C-0.0075 24.9375 -9.5775 24.9375 -19.4375 24.9375 C-17.03872781 29.78958059 -17.03872781 29.78958059 -14.25 31.3125 C-9.43975565 32.38144319 -5.14512697 32.00476686 -0.9375 29.375 C-0.4425 28.900625 0.0525 28.42625 0.5625 27.9375 C2.5 28.75 2.5 28.75 4.5625 29.9375 C5.0575 31.4225 5.0575 31.4225 5.5625 32.9375 C6.5525 33.2675 7.5425 33.5975 8.5625 33.9375 C4.66479078 39.70610964 0.37292724 41.34821687 -6.3125 42.75 C-13.5409862 43.42241732 -19.80450878 41.52249285 -25.4375 36.9375 C-31.11114632 30.79104982 -31.89752723 25.32806845 -31.75 17.16796875 C-31.17038488 11.17619746 -28.96526228 7.05469832 -24.5 3.0625 C-17.13420072 -2.04846276 -8.54138342 -2.64006397 0 0 Z M-17.4375 9.9375 C-18.0975 11.9175 -18.7575 13.8975 -19.4375 15.9375 C-13.8275 15.9375 -8.2175 15.9375 -2.4375 15.9375 C-2.7675 13.9575 -3.0975 11.9775 -3.4375 9.9375 C-8.08578247 7.17365637 -12.77769634 7.23971893 -17.4375 9.9375 Z " fill="#FBFBFC" transform="translate(469.4375,81.0625)"/>
<path d="M0 0 C5.20924106 3.37068539 10.19442933 8.08328799 12.1875 14.0625 C12.88871702 21.38520919 13.0747163 27.44204494 8.54296875 33.484375 C7.87201172 34.26554687 7.87201172 34.26554687 7.1875 35.0625 C6.548125 35.825625 5.90875 36.58875 5.25 37.375 C-0.86355855 42.37700245 -6.52738181 42.64495124 -14.17578125 42.47265625 C-21.78583937 41.61437902 -25.95183931 37.40967174 -30.68359375 31.7109375 C-33.9876952 26.88626341 -33.30798147 20.63312736 -32.8125 15.0625 C-31.10997638 8.87803169 -27.12231491 4.5287825 -21.8125 1.0625 C-15.04836482 -2.26841026 -7.17724076 -1.76489527 0 0 Z M-19.8125 14.0625 C-21.8171569 18.39255889 -22.07348086 20.23834991 -20.625 24.8125 C-19.0961826 27.55382776 -18.18506887 29.14105338 -15.8125 31.0625 C-13.6820448 31.71090315 -13.6820448 31.71090315 -11.375 31.875 C-10.61316406 31.96394531 -9.85132813 32.05289063 -9.06640625 32.14453125 C-5.60552859 32.0185721 -3.54191384 30.79191384 -1.125 28.375 C0.69295577 25.17193506 1.06269481 22.74425319 1.1875 19.0625 C0.01236646 15.1453882 -0.95151181 12.80390649 -4.0625 10.125 C-10.8376306 7.5073359 -14.95719313 8.75553668 -19.8125 14.0625 Z " fill="#FCFCFD" transform="translate(302.8125,80.9375)"/>
<path d="M0 0 C0.02464574 5.96313166 0.042834 11.92623395 0.05493164 17.8894043 C0.05997278 19.91968298 0.06680557 21.94995802 0.07543945 23.98022461 C0.08751467 26.89177347 0.09323034 29.8032745 0.09765625 32.71484375 C0.10281754 33.6283812 0.10797882 34.54191864 0.11329651 35.48313904 C0.11349168 37.65575427 0.06211805 39.82827296 0 42 C-1 43 -1 43 -2.99609375 43.1328125 C-3.80175781 43.13023438 -4.60742188 43.12765625 -5.4375 43.125 C-6.24058594 43.12757812 -7.04367187 43.13015625 -7.87109375 43.1328125 C-10 43 -10 43 -12 42 C-12 41.34 -12 40.68 -12 40 C-12.7425 40.495 -13.485 40.99 -14.25 41.5 C-19.08409889 43.92281806 -24.74807614 43.72099089 -30 43 C-34.48195909 40.79428623 -36.55464439 38.36670644 -39 34 C-40.03150172 30.09816003 -40.11603211 26.41103275 -40.09765625 22.38671875 C-40.09443359 21.13955078 -40.09121094 19.89238281 -40.08789062 18.60742188 C-40.07532227 16.66706055 -40.07532227 16.66706055 -40.0625 14.6875 C-40.05798828 13.37458984 -40.05347656 12.06167969 -40.04882812 10.70898438 C-40.03705959 7.47263672 -40.01912463 4.23631255 -40 1 C-36.04 1 -32.08 1 -28 1 C-27.98541748 1.83249268 -27.97083496 2.66498535 -27.95581055 3.52270508 C-27.8947137 6.61489653 -27.82055444 9.70642082 -27.73754883 12.7980957 C-27.68798681 14.7929063 -27.65348867 16.78807257 -27.61914062 18.78320312 C-27.58369141 20.03681641 -27.54824219 21.29042969 -27.51171875 22.58203125 C-27.48553467 23.73936768 -27.45935059 24.8967041 -27.43237305 26.08911133 C-27.22405184 28.9763316 -27.22405184 28.9763316 -25.68676758 30.88549805 C-22.89796966 32.72814713 -20.2384148 32.23131534 -17 32 C-16.01 31.67 -15.02 31.34 -14 31 C-12.92044788 27.76134365 -12.79558259 25.20844162 -12.68359375 21.80078125 C-12.64169922 20.59228516 -12.59980469 19.38378906 -12.55664062 18.13867188 C-12.51732422 16.87603516 -12.47800781 15.61339844 -12.4375 14.3125 C-12.39431641 13.03826172 -12.35113281 11.76402344 -12.30664062 10.45117188 C-12.2004514 7.30089148 -12.09840467 4.15053161 -12 1 C-10.18755015 0.83278881 -8.37503867 0.66624559 -6.5625 0.5 C-5.55316406 0.4071875 -4.54382813 0.314375 -3.50390625 0.21875 C-1 0 -1 0 0 0 Z " fill="#FCFCFD" transform="translate(361,80)"/>
<path d="M0 0 C-1.50427733 6.64389153 -1.50427733 6.64389153 -3.99237061 8.4312439 C-6.53845628 10.42074826 -6.75307923 11.65374753 -7.37207031 14.78759766 C-7.67192841 16.24524033 -7.67192841 16.24524033 -7.97784424 17.73233032 C-8.17593689 18.78230194 -8.37402954 19.83227356 -8.578125 20.9140625 C-8.79442566 21.99827484 -9.01072632 23.08248718 -9.23358154 24.19955444 C-9.68822386 26.49625925 -10.13489897 28.79455336 -10.57421875 31.09423828 C-11.24410029 34.59417573 -11.9401617 38.08810059 -12.640625 41.58203125 C-13.079695 43.81740053 -13.51724381 46.05306924 -13.953125 48.2890625 C-14.15931458 49.32688873 -14.36550415 50.36471497 -14.57794189 51.43399048 C-15.70637419 57.40264375 -16.20622802 62.92571885 -16 69 C-8.52534555 69.10134735 -1.050868 69.1714435 6.42431641 69.21972656 C8.96767803 69.23985272 11.51099333 69.26715637 14.05419922 69.30175781 C17.70812404 69.3502297 21.36143756 69.37295916 25.015625 69.390625 C26.15429016 69.41127014 27.29295532 69.43191528 28.46612549 69.45318604 C29.52692322 69.45348816 30.58772095 69.45379028 31.68066406 69.45410156 C32.61332092 69.46298401 33.54597778 69.47186646 34.50689697 69.48101807 C37.72999597 68.85915494 38.8406972 67.39269744 41 65 C43.78142043 64.49244153 46.1457229 64.80971486 49 65 C48.72301826 68.97007156 48.23315777 70.72389212 45.625 73.8125 C41.86087785 76.94926846 39.15922571 77.12901306 34.41455078 77.16113281 C33.26971222 77.17074036 32.12487366 77.1803479 30.94534302 77.19024658 C29.70783295 77.19449646 28.47032288 77.19874634 27.1953125 77.203125 C25.9240451 77.20882507 24.65277771 77.21452515 23.34298706 77.22039795 C20.65131042 77.22985134 17.95974537 77.23674656 15.26806641 77.24023438 C11.82587201 77.24571719 8.38407355 77.26974499 4.94200325 77.29820633 C1.65146977 77.32135463 -1.63908399 77.3232837 -4.9296875 77.328125 C-6.77987991 77.3466452 -6.77987991 77.3466452 -8.66744995 77.36553955 C-9.81859283 77.36253845 -10.96973572 77.35953735 -12.15576172 77.35644531 C-13.16597382 77.36009094 -14.17618591 77.36373657 -15.2170105 77.36749268 C-19.42531264 76.81178802 -22.04092904 74.95907096 -25 72 C-25.4886254 64.71750504 -24.27190953 58.01084581 -22.84765625 50.88671875 C-22.62806747 49.75474564 -22.4084787 48.62277252 -22.18223572 47.45649719 C-21.48350279 43.86524701 -20.773057 40.27642726 -20.0625 36.6875 C-19.58844634 34.25730693 -19.11513158 31.8269696 -18.64257812 29.39648438 C-17.77657654 24.9583629 -16.90896287 20.52058668 -16.03149414 16.0847168 C-15.85606583 15.19697067 -15.68063751 14.30922455 -15.49989319 13.39457703 C-15.33492844 12.60436661 -15.16996368 11.81415619 -15 11 C-14.79019753 9.94937126 -14.79019753 9.94937126 -14.57615662 8.8775177 C-13.28987491 4.68592014 -10.17867843 1.66120985 -6.4375 -0.4375 C-3.84893806 -1.03486045 -2.46738531 -0.91384641 0 0 Z " fill="#B7A4EC" transform="translate(111,54)"/>
<path d="M0 0 C-0.25 2.875 -0.25 2.875 -1 6 C-1.648479 6.27175049 -2.29695801 6.54350098 -2.96508789 6.82348633 C-5.27719384 7.85578489 -5.27719384 7.85578489 -5.83374023 10.6159668 C-5.99044189 11.71593994 -6.14714355 12.81591309 -6.30859375 13.94921875 C-6.58968994 15.79495483 -6.58968994 15.79495483 -6.87646484 17.67797852 C-7.06349527 19.01448306 -7.25050659 20.35099028 -7.4375 21.6875 C-7.84553274 24.42082624 -8.26725204 27.15194638 -8.69140625 29.8828125 C-8.79658569 30.56845779 -8.90176514 31.25410309 -9.01013184 31.96052551 C-10.16730022 39.354562 -11.7999455 46.63166077 -13.56420898 53.90307617 C-15.0995594 59.96166613 -15.0995594 59.96166613 -14 66 C-11.49450555 67.25274723 -9.80264368 67.12029624 -6.99951172 67.11352539 C-5.95858368 67.11344986 -4.91765564 67.11337433 -3.84518433 67.11329651 C-2.1545134 67.10555458 -2.1545134 67.10555458 -0.4296875 67.09765625 C0.72167694 67.0962413 1.87304138 67.09482635 3.05929565 67.09336853 C6.74788986 67.08775716 10.43642405 67.0752027 14.125 67.0625 C16.62109288 67.05748647 19.1171867 67.05292331 21.61328125 67.04882812 C27.74220809 67.03778403 33.87109976 67.0210348 40 67 C40.99 65.02 40.99 65.02 42 63 C43.98 63 45.96 63 48 63 C47.50958904 69.37534247 47.50958904 69.37534247 45.0625 72.375 C41.68373415 75.03705794 39.69328456 75.13287434 35.4362793 75.16113281 C33.68887703 75.17554413 33.68887703 75.17554413 31.90617371 75.19024658 C30.009356 75.1966214 30.009356 75.1966214 28.07421875 75.203125 C26.13190117 75.21167511 26.13190117 75.21167511 24.15034485 75.22039795 C21.40564582 75.23090798 18.66097608 75.23675028 15.91625977 75.24023438 C12.40565842 75.24571208 8.89544631 75.269724 5.38496685 75.29820633 C2.03139166 75.32135754 -1.32213028 75.32328434 -4.67578125 75.328125 C-5.93425369 75.3404718 -7.19272614 75.3528186 -8.48933411 75.36553955 C-9.66372543 75.36253845 -10.83811676 75.35953735 -12.0480957 75.35644531 C-13.0790889 75.36009094 -14.11008209 75.36373657 -15.1723175 75.36749268 C-18.45885124 74.94036655 -20.34006264 73.94618988 -23 72 C-26.58200821 64.83598359 -22.68644969 54.36361762 -21.1875 47 C-20.90839057 45.60090589 -20.63007325 44.20165353 -20.35253906 42.80224609 C-19.81188714 40.07820595 -19.2681593 37.35481051 -18.72216797 34.63183594 C-17.98989159 30.94916404 -17.28613295 27.26272436 -16.60766602 23.56982422 C-16.26877132 21.72706983 -15.91603736 19.88687627 -15.5625 18.046875 C-15.20807271 16.1270605 -14.89025521 14.19977755 -14.625 12.265625 C-13.77630272 6.85517984 -12.02441307 4.4253998 -7.65625 1.09375 C-4.6098203 -0.9180432 -3.4750266 -1.04250798 0 0 Z " fill="#6BDD9D" transform="translate(93,70)"/>
<path d="M0 0 C0.763125 0.70125 1.52625 1.4025 2.3125 2.125 C2.3125 6.125 2.3125 6.125 -0.1875 8.875 C-1.0125 9.6175 -1.8375 10.36 -2.6875 11.125 C-7.4375 9.25 -7.4375 9.25 -9.6875 8.125 C-13.72740348 7.74387703 -15.98071967 7.7009318 -19.5 9.8125 C-21.86820365 12.31602957 -22.90856448 13.77557724 -23.6875 17.125 C-23.40892511 21.09469212 -23.08182767 24.84855161 -20.6875 28.125 C-17.23729189 29.65842583 -13.39022347 29.38484024 -9.6875 29.125 C-8.00720006 28.14808143 -6.33821396 27.15111949 -4.6875 26.125 C-1.34920376 26.125 -0.42878944 27.36607121 2.0625 29.6875 C3.17625 30.8940625 3.17625 30.8940625 4.3125 32.125 C0.04929611 36.76436894 -3.68048003 39.73778513 -10.0546875 40.55859375 C-17.42620441 40.56680257 -22.43099541 40.12916294 -28.6875 36.125 C-28.6875 35.465 -28.6875 34.805 -28.6875 34.125 C-29.3475 34.125 -30.0075 34.125 -30.6875 34.125 C-35.5534179 27.24320182 -36.72767264 21.48144315 -35.6875 13.125 C-33.9817537 7.00438092 -30.52292725 3.08125866 -25.6875 -0.875 C-23.125 -2.25 -23.125 -2.25 -20.6875 -2.875 C-19.82125 -3.1225 -18.955 -3.37 -18.0625 -3.625 C-11.91879754 -4.08008907 -5.35629402 -3.21886552 0 0 Z " fill="#FCFCFC" transform="translate(431.6875,82.875)"/>
<path d="M0 0 C4.875 2.875 4.875 2.875 6 4 C6.41755562 11.47733861 5.1739874 18.26572507 3.625 25.5625 C3.40328125 26.64724609 3.1815625 27.73199219 2.953125 28.84960938 C-0.82409874 47.14692557 -0.82409874 47.14692557 -5 52 C-10.93470981 55.29316204 -16.05282816 55.39980445 -22.74609375 55.29296875 C-23.75720718 55.28872391 -24.76832062 55.28447906 -25.81007385 55.28010559 C-29.01949401 55.26339754 -32.22827165 55.22575953 -35.4375 55.1875 C-37.62173568 55.17244301 -39.80598127 55.15875638 -41.99023438 55.14648438 C-47.3270398 55.11351991 -52.66347398 55.06339943 -58 55 C-58 54.67 -58 54.34 -58 54 C-56.02 54 -54.04 54 -52 54 C-52 52.02 -52 50.04 -52 48 C-47.5628279 46.92234627 -43.17863728 46.78325478 -38.63671875 46.68359375 C-37.84473587 46.66281265 -37.05275299 46.64203156 -36.23677063 46.62062073 C-33.72043072 46.55552196 -31.20399128 46.49642577 -28.6875 46.4375 C-26.97590139 46.394277 -25.26431265 46.35066152 -23.55273438 46.30664062 C-19.36859016 46.19988153 -15.18434638 46.09850365 -11 46 C-8.94711135 41.47590467 -8.04277669 36.89416636 -7.08984375 32.05078125 C-6.91747696 31.19695358 -6.74511017 30.34312592 -6.56752014 29.46342468 C-6.01969735 26.74732758 -5.47812065 24.03003906 -4.9375 21.3125 C-4.39264692 18.58439255 -3.84641263 15.85658661 -3.29676819 13.12944031 C-2.95546498 11.43505602 -2.61702803 9.74009137 -2.28172302 8.04450989 C-1.1120914 2.2241828 -1.1120914 2.2241828 0 0 Z " fill="#6FE183" transform="translate(180,62)"/>
<path d="M0 0 C-0.93866818 17.15497018 -3.61163219 34.1723756 -7 51 C-7.20882813 52.05703125 -7.41765625 53.1140625 -7.6328125 54.203125 C-8.08240163 56.47006739 -8.53734185 58.7356966 -9 61 C-10.62490954 61.02698189 -12.24994633 61.04638757 -13.875 61.0625 C-15.23238281 61.07990234 -15.23238281 61.07990234 -16.6171875 61.09765625 C-19 61 -19 61 -21 60 C-17.1218404 31.69743418 -17.1218404 31.69743418 -14.7265625 20.484375 C-13.83145458 16.19170691 -13.06593667 11.88193593 -12.3125 7.5625 C-12.18093506 6.80880127 -12.04937012 6.05510254 -11.91381836 5.27856445 C-11.60781214 3.51928593 -11.30369015 1.75967981 -11 0 C-9.54263913 -0.19491452 -8.08405407 -0.38069358 -6.625 -0.5625 C-5.81289063 -0.66691406 -5.00078125 -0.77132812 -4.1640625 -0.87890625 C-2 -1 -2 -1 0 0 Z " fill="#DBD0F9" transform="translate(503,62)"/>
<path d="M0 0 C4.09485919 1.09683728 5.63728722 0.4489963 9.5 -1.0625 C11.15 -1.0625 12.8 -1.0625 14.5 -1.0625 C14.5 2.5675 14.5 6.1975 14.5 9.9375 C11.52148438 10.5234375 11.52148438 10.5234375 8.54296875 11.109375 C5.81423005 12.21547941 5.02336523 13.42680765 3.5 15.9375 C2.99888483 18.73513443 2.99888483 18.73513443 2.98828125 21.796875 C2.95283203 22.91191406 2.91738281 24.02695313 2.88085938 25.17578125 C2.84702148 26.91408203 2.84702148 26.91408203 2.8125 28.6875 C2.77833984 29.86183594 2.74417969 31.03617188 2.70898438 32.24609375 C2.62654827 35.14313389 2.55738189 38.03987298 2.5 40.9375 C-0.02475462 42.19987731 -1.81200466 42.03606404 -4.625 42 C-5.53507812 41.99097656 -6.44515625 41.98195312 -7.3828125 41.97265625 C-8.08148438 41.96105469 -8.78015625 41.94945312 -9.5 41.9375 C-10.82339119 37.96732643 -10.51212931 34.24076443 -10.37890625 30.11328125 C-10.35529526 29.25188034 -10.33168427 28.39047943 -10.30735779 27.50297546 C-10.2307872 24.75181325 -10.1467344 22.0009372 -10.0625 19.25 C-10.0092727 17.38477963 -9.95653235 15.51954529 -9.90429688 13.65429688 C-9.77518096 9.08185004 -9.63935423 4.50964579 -9.5 -0.0625 C-5.71422112 -0.83348025 -3.76955651 -1.14432965 0 0 Z " fill="#FCFCFC" transform="translate(378.5,81.0625)"/>
<path d="M0 0 C1.32 0.33 2.64 0.66 4 1 C3.21625 1.12375 2.4325 1.2475 1.625 1.375 C-1.08384122 2.68463722 -1.08384122 2.68463722 -1.671875 4.76171875 C-2.21085661 7.49844434 -2.6101647 10.23783361 -3 13 C-3.45941022 15.79515593 -3.94812164 18.58495595 -4.4375 21.375 C-4.56310303 22.10920166 -4.68870605 22.84340332 -4.81811523 23.59985352 C-5.58057373 27.96622175 -6.52666712 32.21805984 -7.6875 36.5 C-9.01266865 41.4969901 -9.25778019 45.84439623 -9 51 C-8.34 51.33 -7.68 51.66 -7 52 C-6.67 50.68 -6.34 49.36 -6 48 C-5.34 48 -4.68 48 -4 48 C-4.45944928 51.36929469 -4.94973252 54.71814304 -5.546875 58.06640625 C-5.73765625 59.13761719 -5.9284375 60.20882812 -6.125 61.3125 C-6.31320313 62.33988281 -6.50140625 63.36726563 -6.6953125 64.42578125 C-7.23701508 66.9836741 -7.23701508 66.9836741 -6 69 C0.93 69.33 7.86 69.66 15 70 C13.02 70.99 13.02 70.99 11 72 C10.18828772 74.55519921 10.18828772 74.55519921 10 77 C3.20259638 78.46970889 -3.97793951 79.11339071 -10.5625 76.6875 C-13 75 -13 75 -15 72 C-15.54797835 64.21711908 -14.11654441 56.88248932 -12.6875 49.25 C-12.47416016 48.0640625 -12.26082031 46.878125 -12.04101562 45.65625 C-10.76885498 38.69924015 -9.29626964 31.8157137 -7.67163086 24.93310547 C-6.6451955 20.45051935 -5.85803644 15.93909108 -5.09570312 11.40429688 C-4.48530303 7.96354996 -3.79112618 5.02108407 -2 2 C-1.34 2 -0.68 2 0 2 C0 1.34 0 0.68 0 0 Z " fill="#B2B1EF" transform="translate(118,39)"/>
<path d="M0 0 C-0.25 2.875 -0.25 2.875 -1 6 C-1.64702881 6.26522461 -2.29405762 6.53044922 -2.96069336 6.80371094 C-5.29770284 7.86784822 -5.29770284 7.86784822 -5.86547852 10.75878906 C-6.03490967 11.91604492 -6.20434082 13.07330078 -6.37890625 14.265625 C-6.57806641 15.54953125 -6.77722656 16.8334375 -6.98242188 18.15625 C-7.17662316 19.52071377 -7.36997955 20.88529806 -7.5625 22.25 C-7.95632603 24.88070589 -8.35345021 27.51092019 -8.75390625 30.140625 C-8.95000488 31.43548828 -9.14610352 32.73035156 -9.34814453 34.06445312 C-10.34654537 40.09225145 -11.64508471 46.04231516 -13 52 C-14.32 51.67 -15.64 51.34 -17 51 C-17.33 49.68 -17.66 48.36 -18 47 C-18.33 47.66 -18.66 48.32 -19 49 C-19.66 48.67 -20.32 48.34 -21 48 C-17.19606945 25.70239945 -17.19606945 25.70239945 -15.375 16.375 C-15.15585938 15.24835938 -14.93671875 14.12171875 -14.7109375 12.9609375 C-13.15380004 6.47571664 -11.23591555 3.92693666 -6 0 C-3.50907189 -1.24546405 -2.58919267 -0.7767578 0 0 Z " fill="#C3AEF0" transform="translate(93,70)"/>
<path d="M0 0 C1.953125 0.13020833 3.90625 0.26041667 5.859375 0.390625 C5.58239326 4.36069656 5.09253277 6.11451712 2.484375 9.203125 C-0.90299656 12.02593463 -3.25333432 12.51637655 -7.52026367 12.50415039 C-8.40095016 12.50407486 -9.28163666 12.50399933 -10.18901062 12.50392151 C-11.13597305 12.49876022 -12.08293549 12.49359894 -13.05859375 12.48828125 C-14.03097488 12.4868663 -15.00335602 12.48545135 -16.00520325 12.48399353 C-19.11287504 12.47839317 -22.22047496 12.46584062 -25.328125 12.453125 C-27.43424375 12.44811005 -29.54036363 12.44354713 -31.64648438 12.43945312 C-36.81122564 12.42842362 -41.97591313 12.41115875 -47.140625 12.390625 C-47.140625 9.390625 -47.140625 9.390625 -45.140625 6.390625 C-36.53294217 3.58556542 -27.70647401 4.29256101 -18.76538086 4.58251953 C-16.7698236 4.6429261 -14.77353148 4.67728833 -12.77734375 4.7109375 C-11.00943481 4.76145264 -11.00943481 4.76145264 -9.20581055 4.81298828 C-4.82224912 4.2089611 -3.94611979 0.72009485 0 0 Z " fill="#69DF8C" transform="translate(154.140625,118.609375)"/>
<path d="M0 0 C0.66 0 1.32 0 2 0 C2.18175781 0.68707031 2.36351562 1.37414062 2.55078125 2.08203125 C2.80214844 2.98308594 3.05351562 3.88414063 3.3125 4.8125 C3.67794922 6.15248047 3.67794922 6.15248047 4.05078125 7.51953125 C5.06139753 10.16044211 5.74844427 11.32156755 8 13 C10.49018012 13.99988926 10.49018012 13.99988926 13.1875 14.6875 C14.08855469 14.93886719 14.98960937 15.19023438 15.91796875 15.44921875 C16.60503906 15.63097656 17.29210937 15.81273437 18 16 C18 16.99 18 17.98 18 19 C17.16855469 19.11214844 16.33710938 19.22429688 15.48046875 19.33984375 C9.19235536 20.22260258 9.19235536 20.22260258 4.5703125 24.0625 C3.82880927 26.3863864 3.35518848 28.58889702 3 31 C2.67796397 32.33610691 2.34827666 33.67049172 2 35 C1.34 35 0.68 35 0 35 C-0.15855469 34.32453125 -0.31710938 33.6490625 -0.48046875 32.953125 C-1.95777237 27.2882968 -1.95777237 27.2882968 -5.1875 22.5 C-8.76716696 20.59084429 -12.02574788 19.80832247 -16 19 C-15.505 17.515 -15.505 17.515 -15 16 C-13.0390625 15.0859375 -13.0390625 15.0859375 -10.625 14.375 C-9.83351562 14.13523437 -9.04203125 13.89546875 -8.2265625 13.6484375 C-7.49179688 13.43445312 -6.75703125 13.22046875 -6 13 C-5.01 12.67 -4.02 12.34 -3 12 C-1.96683512 9.20827761 -1.96683512 9.20827761 -1.3125 5.9375 C-1.06113281 4.83277344 -0.80976563 3.72804688 -0.55078125 2.58984375 C-0.36902344 1.73519531 -0.18726563 0.88054688 0 0 Z " fill="#BDA4F6" transform="translate(181,19)"/>
<path d="M0 0 C1.32 0.99 2.64 1.98 4 3 C3.67 3.33 3.34 3.66 3 4 C3.66 4.33 4.32 4.66 5 5 C4.67 9.62 4.34 14.24 4 19 C7.07691766 21.05127844 7.93644999 21.27260872 11.44921875 21.4140625 C12.29677734 21.45273438 13.14433594 21.49140625 14.01757812 21.53125 C15.33918945 21.57765625 15.33918945 21.57765625 16.6875 21.625 C17.58017578 21.66367188 18.47285156 21.70234375 19.39257812 21.7421875 C21.5948462 21.83640218 23.79710722 21.92201588 26 22 C19.77869646 28.22130354 17.87432261 28.23016635 9.125 28.3125 C7.59552734 28.35600586 7.59552734 28.35600586 6.03515625 28.40039062 C5.05675781 28.40876953 4.07835938 28.41714844 3.0703125 28.42578125 C2.17070801 28.44036377 1.27110352 28.45494629 0.34423828 28.4699707 C-2 28 -2 28 -3.79345703 26.18823242 C-7.5746116 19.33058604 -3.79798837 10.02071648 -2 3 C-1.34 3 -0.68 3 0 3 C0 2.01 0 1.02 0 0 Z " fill="#6AD8D9" transform="translate(74,116)"/>
<path d="M0 0 C0.33 0 0.66 0 1 0 C1.33 1.65 1.66 3.3 2 5 C3.65 4.67 5.3 4.34 7 4 C6.9278125 5.13179688 6.855625 6.26359375 6.78125 7.4296875 C6.68746717 8.91145626 6.59371896 10.3932272 6.5 11.875 C6.42845703 12.99455078 6.42845703 12.99455078 6.35546875 14.13671875 C6.09504139 18.06528636 6.09504139 18.06528636 6 22 C7.299375 21.979375 8.59875 21.95875 9.9375 21.9375 C14.69382325 21.92995028 19.28388953 22.40112883 24 23 C23.360625 23.28875 22.72125 23.5775 22.0625 23.875 C19.84793921 24.82823451 19.84793921 24.82823451 19 27 C20.32 27.66 21.64 28.32 23 29 C18.96774589 29.94696877 15.13841198 30.19648605 11 30.25 C9.80375 30.27578125 8.6075 30.3015625 7.375 30.328125 C2.75590757 29.87904657 0.23292405 28.23292405 -3 25 C-3.73386131 16.48720877 -1.71018316 8.29642424 0 0 Z " fill="#96C7E4" transform="translate(89,101)"/>
<path d="M0 0 C5.445 0.495 5.445 0.495 11 1 C9.49051577 8.54742117 3.96334498 14.21985558 -2.375 18.5625 C-5.99057418 20.54245729 -8.62835341 21.12132821 -12.6875 21.0625 C-13.89986328 21.04896484 -13.89986328 21.04896484 -15.13671875 21.03515625 C-15.75160156 21.02355469 -16.36648438 21.01195312 -17 21 C-16.125 13.25 -16.125 13.25 -15 11 C-13.02578379 10.27612072 -11.05087533 9.553986 -9.0703125 8.84765625 C-4.33377811 6.90835821 -2.26030785 4.52061569 0 0 Z " fill="#79E0B6" transform="translate(517,120)"/>
<path d="M0 0 C-0.33 4.29 -0.66 8.58 -1 13 C-1.99 12.67 -2.98 12.34 -4 12 C-3.91298828 12.92232422 -3.91298828 12.92232422 -3.82421875 13.86328125 C-3.68723606 16.31722828 -3.65704565 18.56459002 -4 21 C-6.125 22.875 -6.125 22.875 -9 24 C-11.00490178 24.99013577 -13.0055553 25.98896571 -15 27 C-14.52470401 23.2494988 -14.04409198 19.49969753 -13.5625 15.75 C-13.42779297 14.68652344 -13.29308594 13.62304688 -13.15429688 12.52734375 C-13.02216797 11.50253906 -12.89003906 10.47773437 -12.75390625 9.421875 C-12.63345947 8.47924805 -12.5130127 7.53662109 -12.38891602 6.56542969 C-12.04894631 4.32286742 -11.59605926 2.18630037 -11 0 C-9.54263913 -0.19491452 -8.08405407 -0.38069358 -6.625 -0.5625 C-5.81289063 -0.66691406 -5.00078125 -0.77132812 -4.1640625 -0.87890625 C-2 -1 -2 -1 0 0 Z " fill="#E5E0FA" transform="translate(503,62)"/>
<path d="M0 0 C1.18797432 0.00212242 1.18797432 0.00212242 2.39994812 0.00428772 C4.91641094 0.00986168 7.43278306 0.02240932 9.94921875 0.03515625 C11.660806 0.04017462 13.37239466 0.04473694 15.08398438 0.04882812 C19.26826383 0.05982257 23.45247594 0.07706918 27.63671875 0.09765625 C27.63671875 0.42765625 27.63671875 0.75765625 27.63671875 1.09765625 C21.2544493 1.92117489 15.06927276 2.21851843 8.63671875 2.09765625 C8.63671875 3.41765625 8.63671875 4.73765625 8.63671875 6.09765625 C14.90671875 6.09765625 21.17671875 6.09765625 27.63671875 6.09765625 C27.30671875 6.75765625 26.97671875 7.41765625 26.63671875 8.09765625 C11.45671875 8.09765625 -3.72328125 8.09765625 -19.36328125 8.09765625 C-19.36328125 7.76765625 -19.36328125 7.43765625 -19.36328125 7.09765625 C-17.38328125 7.09765625 -15.40328125 7.09765625 -13.36328125 7.09765625 C-13.36328125 5.11765625 -13.36328125 3.13765625 -13.36328125 1.09765625 C-8.91000488 -0.0147006 -4.55879352 -0.03089246 0 0 Z " fill="#81DB9C" transform="translate(141.36328125,108.90234375)"/>
<path d="M0 0 C0.19517554 1.93674185 0.38087873 3.87444009 0.5625 5.8125 C0.66691406 6.89144531 0.77132812 7.97039062 0.87890625 9.08203125 C1 12 1 12 0 15 C0.39397335 17.63804589 0.39397335 17.63804589 1 20 C0.01 20.33 -0.98 20.66 -2 21 C-3.32 19.68 -4.64 18.36 -6 17 C-7.08318662 21.08278034 -6.83473185 24.17878835 -6.0625 28.3125 C-5.86785156 29.38113281 -5.67320312 30.44976562 -5.47265625 31.55078125 C-5.31667969 32.35902344 -5.16070312 33.16726562 -5 34 C-8.43636444 30.56363556 -9.22824324 26.54699391 -9.8515625 21.83984375 C-9.98046875 20.88142578 -10.109375 19.92300781 -10.2421875 18.93554688 C-10.36851562 17.94619141 -10.49484375 16.95683594 -10.625 15.9375 C-10.7590625 14.94427734 -10.893125 13.95105469 -11.03125 12.92773438 C-11.56344836 8.89551722 -12 5.07582304 -12 1 C-7.92855518 0.2244867 -4.13880432 -0.04637316 0 0 Z " fill="#D2BFF8" transform="translate(517,80)"/>
<path d="M0 0 C4.875 2.875 4.875 2.875 6 4 C6.4260455 11.58203201 5.15907312 18.52999526 3.625 25.9375 C3.40328125 27.07251953 3.1815625 28.20753906 2.953125 29.37695312 C1.25695938 37.74304062 1.25695938 37.74304062 -1 40 C-1.02708567 38.39592672 -1.04643483 36.7917215 -1.0625 35.1875 C-1.07410156 34.29417969 -1.08570313 33.40085938 -1.09765625 32.48046875 C-1 30 -1 30 0 27 C0 26.01 0 25.02 0 24 C-1.32 24 -2.64 24 -4 24 C-4.33 27.3 -4.66 30.6 -5 34 C-5.66 34 -6.32 34 -7 34 C-6.33044761 30.12118736 -5.65478187 26.24349266 -4.97363281 22.36669922 C-4.6302822 20.40517661 -4.29166626 18.44282713 -3.953125 16.48046875 C-3.73398438 15.23652344 -3.51484375 13.99257812 -3.2890625 12.7109375 C-3.09006348 11.56931152 -2.89106445 10.42768555 -2.68603516 9.25146484 C-2.01248963 6.05919464 -1.09411712 3.07084916 0 0 Z " fill="#70D093" transform="translate(180,62)"/>
<path d="M0 0 C0.99 0.33 1.98 0.66 3 1 C0.93836783 12.55829951 -3.31550881 23.35061353 -10 33 C-10.33 33 -10.66 33 -11 33 C-11.28571429 25.57142857 -11.28571429 25.57142857 -9 22 C-9.99 21.67 -10.98 21.34 -12 21 C-11.34 19.68 -10.68 18.36 -10 17 C-10.99 17 -11.98 17 -13 17 C-12.67 15.35 -12.34 13.7 -12 12 C-11.34 12 -10.68 12 -10 12 C-9.690625 10.865625 -9.38125 9.73125 -9.0625 8.5625 C-8 5 -8 5 -7 4 C-5.33382885 3.95936168 -3.66611905 3.957279 -2 4 C-2 3.01 -2 2.02 -2 1 C-1.34 0.67 -0.68 0.34 0 0 Z " fill="#C19FFB" transform="translate(546,80)"/>
<path d="M0 0 C1.92875977 0.00966797 1.92875977 0.00966797 3.89648438 0.01953125 C5.23437779 0.03623649 6.57226842 0.05316631 7.91015625 0.0703125 C9.27538408 0.08035928 10.64061905 0.08948214 12.00585938 0.09765625 C15.32830824 0.12113645 18.65038946 0.15397891 21.97265625 0.1953125 C19.53351133 2.63445742 18.75819194 2.48193773 15.40234375 2.609375 C14.50644531 2.64804688 13.61054688 2.68671875 12.6875 2.7265625 C11.75035156 2.7575 10.81320313 2.7884375 9.84765625 2.8203125 C8.90277344 2.85898438 7.95789063 2.89765625 6.984375 2.9375 C4.6473325 3.03192596 2.31030124 3.11749644 -0.02734375 3.1953125 C-0.35734375 3.8553125 -0.68734375 4.5153125 -1.02734375 5.1953125 C8.54265625 5.8553125 18.11265625 6.5153125 27.97265625 7.1953125 C27.97265625 7.5253125 27.97265625 7.8553125 27.97265625 8.1953125 C13.45265625 8.1953125 -1.06734375 8.1953125 -16.02734375 8.1953125 C-16.02734375 5.1953125 -16.02734375 5.1953125 -14.02734375 2.1953125 C-9.26361347 0.43789066 -5.0510726 -0.04489842 0 0 Z " fill="#82DBB6" transform="translate(123.02734375,122.8046875)"/>
<path d="M0 0 C1.3921875 0.12375 1.3921875 0.12375 2.8125 0.25 C2.32208904 6.62534247 2.32208904 6.62534247 -0.125 9.625 C-3.53825064 12.31422778 -5.52880049 12.37267808 -9.83056641 12.36352539 C-11.01163971 12.36344986 -12.19271301 12.36337433 -13.40957642 12.36329651 C-14.68980682 12.35813522 -15.97003723 12.35297394 -17.2890625 12.34765625 C-18.59579926 12.3462413 -19.90253601 12.34482635 -21.24887085 12.34336853 C-24.72426258 12.33954894 -28.19961257 12.32972342 -31.67498779 12.31866455 C-35.22081945 12.30843843 -38.76665785 12.30386833 -42.3125 12.29882812 C-49.27085049 12.28810066 -56.22917324 12.27103092 -63.1875 12.25 C-63.1875 11.92 -63.1875 11.59 -63.1875 11.25 C-49.60998956 10.38364134 -36.10271584 10.12319316 -22.5 10.1875 C-20.61132934 10.19253472 -18.72265735 10.19709408 -16.83398438 10.20117188 C-12.28512234 10.21199904 -7.73632668 10.22915001 -3.1875 10.25 C-3.1875 8.93 -3.1875 7.61 -3.1875 6.25 C-2.8575 5.92 -2.5275 5.59 -2.1875 5.25 C-3.5075 4.92 -4.8275 4.59 -6.1875 4.25 C-4.36434338 1.00883268 -3.82500054 0.30000004 0 0 Z " fill="#77D0A4" transform="translate(138.1875,132.75)"/>
<path d="M0 0 C6.6 0.66 13.2 1.32 20 2 C20 4.31 20 6.62 20 9 C17.43721301 9.05420701 14.87558517 9.09377007 12.3125 9.125 C11.59126953 9.14175781 10.87003906 9.15851562 10.12695312 9.17578125 C5.95123219 9.21391569 2.7505862 8.8789919 -1 7 C-0.67 4.69 -0.34 2.38 0 0 Z " fill="#987DD9" transform="translate(137,37)"/>
<path d="M0 0 C4.65854606 1.4606573 7.80552176 4.16914968 11.3125 7.4375 C12.13717773 8.17323242 12.13717773 8.17323242 12.97851562 8.92382812 C14.38282425 10.21648986 15.69893061 11.60347735 17 13 C17 13.99 17 14.98 17 16 C15.58249437 15.88490339 14.16598831 15.75746342 12.75 15.625 C11.56664062 15.52058594 11.56664062 15.52058594 10.359375 15.4140625 C6.91155796 14.80898203 4.78042585 13.90882496 2.48046875 11.23046875 C-1.0415879 5.66540643 -1.0415879 5.66540643 -0.8125 2 C-0.544375 1.34 -0.27625 0.68 0 0 Z " fill="#AFADE9" transform="translate(160,46)"/>
<path d="M0 0 C1.18916016 0.01353516 1.18916016 0.01353516 2.40234375 0.02734375 C4.35169281 0.05082988 6.30088575 0.08669863 8.25 0.125 C7.60546875 0.40085937 6.9609375 0.67671875 6.296875 0.9609375 C3.96229528 1.97257889 3.96229528 1.97257889 3.5 4.75 C3.4175 5.53375 3.335 6.3175 3.25 7.125 C-3.11775821 8.50181259 -10.50547107 9.20650964 -16.75 7.125 C-16.75 6.465 -16.75 5.805 -16.75 5.125 C-15 3.625 -15 3.625 -12.75 2.125 C-11.96109375 1.58746094 -11.96109375 1.58746094 -11.15625 1.0390625 C-7.47645252 -0.35878264 -3.897897 -0.08403426 0 0 Z " fill="#A5BEEE" transform="translate(124.75,108.875)"/>
<path d="M0 0 C1.27230469 0.01804688 2.54460937 0.03609375 3.85546875 0.0546875 C5.31919922 0.08949219 5.31919922 0.08949219 6.8125 0.125 C6.8125 2.765 6.8125 5.405 6.8125 8.125 C5.43964844 8.16367187 5.43964844 8.16367187 4.0390625 8.203125 C2.25628906 8.28820312 2.25628906 8.28820312 0.4375 8.375 C-0.74585938 8.42140625 -1.92921875 8.4678125 -3.1484375 8.515625 C-6.30041753 8.78148799 -6.30041753 8.78148799 -7.6015625 11.171875 C-7.79492188 11.81640625 -7.98828125 12.4609375 -8.1875 13.125 C-8.8475 13.125 -9.5075 13.125 -10.1875 13.125 C-8.3125 6.25 -8.3125 6.25 -7.1875 5.125 C-8.1775 4.135 -9.1675 3.145 -10.1875 2.125 C-6.4507157 -0.36618953 -4.44298181 -0.0815226 0 0 Z " fill="#AE9BE3" transform="translate(130.1875,36.875)"/>
<path d="M0 0 C1.32 0.99 2.64 1.98 4 3 C3.67 3.33 3.34 3.66 3 4 C3.66 4.33 4.32 4.66 5 5 C4.88630789 7.45933991 4.75957349 9.9167909 4.625 12.375 C4.57859375 13.42300781 4.57859375 13.42300781 4.53125 14.4921875 C4.2265625 19.7734375 4.2265625 19.7734375 2 22 C1.34 21.34 0.68 20.68 0 20 C0.33 19.01 0.66 18.02 1 17 C0.01 17.33 -0.98 17.66 -2 18 C-2.66 17.67 -3.32 17.34 -4 17 C-4.33 17.99 -4.66 18.98 -5 20 C-4.48517081 14.147205 -3.54642808 8.6702363 -2 3 C-1.34 3 -0.68 3 0 3 C0 2.01 0 1.02 0 0 Z " fill="#82CBDE" transform="translate(74,116)"/>
<path d="M0 0 C1.32 0 2.64 0 4 0 C4.97714021 3.7999897 4.75989103 6.20054485 4 10 C4.07495443 11.60458 4.15926711 13.20873484 4.25 14.8125 C4.3071974 20.27893752 2.71017953 23.98899511 -1 28 C-3.8125 29.5 -3.8125 29.5 -6 30 C-5.67 29.34 -5.34 28.68 -5 28 C-4.34 28 -3.68 28 -3 28 C-2.67 26.02 -2.34 24.04 -2 22 C-1.01 21.67 -0.02 21.34 1 21 C1 18.69 1 16.38 1 14 C0.01 14 -0.98 14 -2 14 C-2.33 16.64 -2.66 19.28 -3 22 C-4.32 22.33 -5.64 22.66 -7 23 C-6.57835981 21.01739401 -6.13721222 19.03892755 -5.6875 17.0625 C-5.44386719 15.96035156 -5.20023438 14.85820313 -4.94921875 13.72265625 C-4.63597656 12.82417969 -4.32273438 11.92570312 -4 11 C-3.01 10.67 -2.02 10.34 -1 10 C-0.67 6.7 -0.34 3.4 0 0 Z " fill="#70E188" transform="translate(176,86)"/>
<path d="M0 0 C0.99 0.33 1.98 0.66 3 1 C2.67 3.31 2.34 5.62 2 8 C4.475 8.99 4.475 8.99 7 10 C6.01 14.95 5.02 19.9 4 25 C2.68 24.67 1.36 24.34 0 24 C-0.33 22.68 -0.66 21.36 -1 20 C-1.33 20.66 -1.66 21.32 -2 22 C-2.66 21.67 -3.32 21.34 -4 21 C-2.68 14.07 -1.36 7.14 0 0 Z " fill="#A6BDE9" transform="translate(76,97)"/>
<path d="M0 0 C3.465 1.485 3.465 1.485 7 3 C6.85786703 4.89611434 6.71113093 6.79188394 6.5625 8.6875 C6.48128906 9.74324219 6.40007812 10.79898438 6.31640625 11.88671875 C6.03548319 14.65086297 5.59843148 17.28945741 5 20 C3.35 19.67 1.7 19.34 0 19 C-0.79953138 15.71303767 -1.09658936 14.28976808 0 11 C-0.350625 10.4225 -0.70125 9.845 -1.0625 9.25 C-2.4926939 5.81753464 -1.17595044 3.39719016 0 0 Z " fill="#B5ADEF" transform="translate(78,87)"/>
<path d="M0 0 C0.66 0.99 1.32 1.98 2 3 C1.67 3.66 1.34 4.32 1 5 C-1.5625 5.625 -1.5625 5.625 -4 6 C-4.33 7.32 -4.66 8.64 -5 10 C-8.3 10 -11.6 10 -15 10 C-15.125 4.25 -15.125 4.25 -14 2 C-9.35176009 -0.51825885 -5.15335711 -1.7177857 0 0 Z " fill="#6DE79A" transform="translate(516,129)"/>
<path d="M0 0 C0.33 0 0.66 0 1 0 C1.33 1.65 1.66 3.3 2 5 C3.65 4.67 5.3 4.34 7 4 C6.41509121 10.14154225 5.45933748 16.00679849 4 22 C2 19 2 19 2 17 C1.01 17 0.02 17 -1 17 C-1.33 19.64 -1.66 22.28 -2 25 C-2.33 25 -2.66 25 -3 25 C-3.46112386 16.39235455 -1.72848437 8.38520694 0 0 Z " fill="#A3C4E8" transform="translate(89,101)"/>
<path d="M0 0 C0.66 0.33 1.32 0.66 2 1 C-0.06163217 12.55829951 -4.31550881 23.35061353 -11 33 C-11.33 33 -11.66 33 -12 33 C-12.28358209 25.62686567 -12.28358209 25.62686567 -10 22 C-9.67 21.34 -9.34 20.68 -9 20 C-8.34 20 -7.68 20 -7 20 C-6.90203125 19.25234375 -6.8040625 18.5046875 -6.703125 17.734375 C-5.31972131 8.62299207 -5.31972131 8.62299207 -1 5 C-0.20318682 2.35815459 -0.20318682 2.35815459 0 0 Z " fill="#B79EEB" transform="translate(547,80)"/>
<path d="M0 0 C4.875 2.875 4.875 2.875 6 4 C6.09823996 5.47648876 6.12973519 6.95775417 6.125 8.4375 C6.12757813 9.24058594 6.13015625 10.04367188 6.1328125 10.87109375 C6 13 6 13 5 15 C2.4375 15.625 2.4375 15.625 0 16 C-2.66514806 5.62642369 -2.66514806 5.62642369 0 0 Z " fill="#39554F" transform="translate(180,62)"/>
<path d="M0 0 C1.32 0.33 2.64 0.66 4 1 C3.21625 1.12375 2.4325 1.2475 1.625 1.375 C-1.08384122 2.68463722 -1.08384122 2.68463722 -1.671875 4.76171875 C-2.21085661 7.49844434 -2.6101647 10.23783361 -3 13 C-3.45941028 15.79515625 -3.94817421 18.58494655 -4.4375 21.375 C-4.56310303 22.10992676 -4.68870605 22.84485352 -4.81811523 23.60205078 C-5.57668738 27.9495302 -6.52195198 32.17665227 -7.6875 36.4375 C-9.08596613 41.70359904 -9.32394874 46.57685815 -9 52 C-9.66 52 -10.32 52 -11 52 C-12.70102813 45.92193606 -11.11420567 40.60935918 -9.75 34.625 C-9.27848974 32.47688205 -8.80844142 30.32844269 -8.33984375 28.1796875 C-8.10894043 27.13006836 -7.87803711 26.08044922 -7.64013672 24.99902344 C-6.51050301 19.70671969 -5.59266548 14.37942867 -4.67578125 9.046875 C-4.08085207 6.36453534 -3.37232844 4.35923697 -2 2 C-1.34 2 -0.68 2 0 2 C0 1.34 0 0.68 0 0 Z " fill="#BCABEB" transform="translate(118,39)"/>
<path d="M0 0 C2.0625 0.4375 2.0625 0.4375 4 1 C3.41509121 7.14154225 2.45933748 13.00679849 1 19 C0.01 19 -0.98 19 -2 19 C-3.11779745 14.81219547 -2.82801385 11.50660442 -2.125 7.25 C-1.94195312 6.10015625 -1.75890625 4.9503125 -1.5703125 3.765625 C-1 1 -1 1 0 0 Z " fill="#B69CF3" transform="translate(96,75)"/>
<path d="M0 0 C-0.99 0.66 -1.98 1.32 -3 2 C-3 3.32 -3 4.64 -3 6 C3.27 6.33 9.54 6.66 16 7 C16 7.33 16 7.66 16 8 C5.11 8 -5.78 8 -17 8 C-17 7.67 -17 7.34 -17 7 C-15.02 7 -13.04 7 -11 7 C-11 5.02 -11 3.04 -11 1 C-7.26562152 0.12132271 -3.83225427 -0.08912219 0 0 Z " fill="#8FD9C5" transform="translate(139,109)"/>
<path d="M0 0 C2.64 0 5.28 0 8 0 C8 0.99 8 1.98 8 3 C6.576875 3.309375 6.576875 3.309375 5.125 3.625 C1.70833333 4.70833333 1.70833333 4.70833333 0.625 8.125 C0.41875 9.07375 0.2125 10.0225 0 11 C-0.66 11 -1.32 11 -2 11 C-2.02578125 11.60328125 -2.0515625 12.2065625 -2.078125 12.828125 C-2.54888586 19.46157344 -2.54888586 19.46157344 -4.9375 22.3125 C-5.618125 22.869375 -6.29875 23.42625 -7 24 C-7.350625 24.721875 -7.70125 25.44375 -8.0625 26.1875 C-9 28 -9 28 -12 29 C-10.46810734 24.93781696 -8.5665982 21.16123052 -6.5625 17.3125 C-3.6859002 11.69596304 -1.48514886 6.13861527 0 0 Z " fill="#BCA9E9" transform="translate(536,81)"/>
<path d="M0 0 C0.33 1.32 0.66 2.64 1 4 C-3.75 8 -3.75 8 -6 8 C-6.66 10.31 -7.32 12.62 -8 15 C-9.32 13.35 -10.64 11.7 -12 10 C-11.34 9.67 -10.68 9.34 -10 9 C-9.7834375 7.576875 -9.7834375 7.576875 -9.5625 6.125 C-9 3 -9 3 -7.8125 1.125 C-5.19985125 -0.49664405 -3.00479298 -0.20031953 0 0 Z " fill="#B9A1F2" transform="translate(109,56)"/>
<path d="M0 0 C0 2.31 0 4.62 0 7 C-4.62 7 -9.24 7 -14 7 C-12.68 6.67 -11.36 6.34 -10 6 C-10.061875 5.21625 -10.12375 4.4325 -10.1875 3.625 C-10.125625 2.75875 -10.06375 1.8925 -10 1 C-6.1496895 -1.56687367 -4.41430237 -0.83288724 0 0 Z " fill="#69579E" transform="translate(157,39)"/>
<path d="M0 0 C5.28 0 10.56 0 16 0 C15.67 0.99 15.34 1.98 15 3 C18.3 3 21.6 3 25 3 C25.33 3.66 25.66 4.32 26 5 C17.09 4.67 8.18 4.34 -1 4 C-0.34 3.34 0.32 2.68 1 2 C0.67 1.34 0.34 0.68 0 0 Z " fill="#6FE19A" transform="translate(121,125)"/>
<path d="M0 0 C1.98738098 0.01761863 3.97253109 0.16698176 5.953125 0.33203125 C5.67529814 4.31421624 5.16039152 6.08112967 2.578125 9.20703125 C-0.046875 11.33203125 -0.046875 11.33203125 -3.046875 11.33203125 C-3.376875 10.34203125 -3.706875 9.35203125 -4.046875 8.33203125 C-3.4075 8.20828125 -2.768125 8.08453125 -2.109375 7.95703125 C-1.42875 7.75078125 -0.748125 7.54453125 -0.046875 7.33203125 C0.283125 6.67203125 0.613125 6.01203125 0.953125 5.33203125 C-1.356875 5.33203125 -3.666875 5.33203125 -6.046875 5.33203125 C-3.15469741 0.51173527 -3.15469741 0.51173527 0 0 Z " fill="#70DC91" transform="translate(154.046875,118.66796875)"/>
<path d="M0 0 C0 3 0 3 -1 5 C-1.99 5.33 -2.98 5.66 -4 6 C-4.73323796 8.01508358 -4.73323796 8.01508358 -5 10 C-6.32 9.67 -7.64 9.34 -9 9 C-8.67 9.99 -8.34 10.98 -8 12 C-8.99 12.99 -9.98 13.98 -11 15 C-10.34 10.38 -9.68 5.76 -9 1 C-4.545 0.505 -4.545 0.505 0 0 Z " fill="#ECE9FB" transform="translate(501,61)"/>
<path d="M0 0 C0.99 0.33 1.98 0.66 3 1 C4.6112798 6.71271928 3.08989546 10.68670645 1 16 C0.01 15.67 -0.98 15.34 -2 15 C-2.21755666 9.5610835 -2.10428384 5.12919186 0 0 Z " fill="#BEA3FB" transform="translate(110,75)"/>
<path d="M0 0 C-0.25 2.875 -0.25 2.875 -1 6 C-1.6496875 6.268125 -2.299375 6.53625 -2.96875 6.8125 C-5.31244402 7.87098442 -5.31244402 7.87098442 -5.828125 10.8203125 C-5.96734375 11.91085938 -6.1065625 13.00140625 -6.25 14.125 C-6.39953125 15.22070312 -6.5490625 16.31640625 -6.703125 17.4453125 C-6.80109375 18.28835937 -6.8990625 19.13140625 -7 20 C-7.33 20 -7.66 20 -8 20 C-8.25939145 13.22700102 -8.12822089 6.50289716 -6 0 C-3.50907189 -1.24546405 -2.58919267 -0.7767578 0 0 Z " fill="#BDA8F0" transform="translate(93,70)"/>
<path d="M0 0 C3.96 0.33 7.92 0.66 12 1 C10.02 1.99 10.02 1.99 8 3 C7.67 3.66 7.34 4.32 7 5 C8.32 5.66 9.64 6.32 11 7 C5.39 6.67 -0.22 6.34 -6 6 C-5.34 5.01 -4.68 4.02 -4 3 C-3.01 3 -2.02 3 -1 3 C-0.67 2.01 -0.34 1.02 0 0 Z " fill="#87CEE1" transform="translate(101,123)"/>
<path d="M0 0 C0.04254356 1.99954746 0.04080783 4.00041636 0 6 C-1 7 -1 7 -3.50390625 7.09765625 C-5.01791016 7.08025391 -5.01791016 7.08025391 -6.5625 7.0625 C-7.57441406 7.05347656 -8.58632812 7.04445313 -9.62890625 7.03515625 C-10.41136719 7.02355469 -11.19382812 7.01195312 -12 7 C-12 6.01 -12 5.02 -12 4 C-8.24831884 1.21303685 -4.66263733 0 0 0 Z " fill="#AB8CED" transform="translate(137,37)"/>
<path d="M0 0 C3.63 0.33 7.26 0.66 11 1 C9.86382265 6.68088674 8.71674706 7.90204811 5 12 C4.67 11.01 4.34 10.02 4 9 C4.66 8.67 5.32 8.34 6 8 C6 7.01 6 6.02 6 5 C3.69 4.67 1.38 4.34 -1 4 C-0.67 2.68 -0.34 1.36 0 0 Z " fill="#8AD1C9" transform="translate(517,120)"/>
<path d="M0 0 C2.1519437 3.22791555 2.20086443 4.28400809 2 8 C2.763125 8.144375 3.52625 8.28875 4.3125 8.4375 C7 9 7 9 10 10 C10 10.99 10 11.98 10 13 C8.37509046 13.02698189 6.75005367 13.04638757 5.125 13.0625 C3.76761719 13.07990234 3.76761719 13.07990234 2.3828125 13.09765625 C0 13 0 13 -2 12 C-1.34 8.04 -0.68 4.08 0 0 Z " fill="#E9E7F9" transform="translate(484,110)"/>
<path d="M0 0 C0.66 0 1.32 0 2 0 C2.20496094 0.68707031 2.40992188 1.37414062 2.62109375 2.08203125 C2.89050781 2.98308594 3.15992188 3.88414063 3.4375 4.8125 C3.83775391 6.15248047 3.83775391 6.15248047 4.24609375 7.51953125 C4.80387873 9.35473055 5.39344575 11.18033726 6 13 C5.34 13 4.68 13 4 13 C4 12.34 4 11.68 4 11 C3.34 10.67 2.68 10.34 2 10 C1.34 9.34 0.68 8.68 0 8 C0 9.32 0 10.64 0 12 C-3 14.25 -3 14.25 -6 16 C-6 15.01 -6 14.02 -6 13 C-5.01 12.67 -4.02 12.34 -3 12 C-1.96683512 9.20827761 -1.96683512 9.20827761 -1.3125 5.9375 C-1.06113281 4.83277344 -0.80976563 3.72804688 -0.55078125 2.58984375 C-0.36902344 1.73519531 -0.18726563 0.88054688 0 0 Z " fill="#B6A1E3" transform="translate(181,19)"/>
<path d="M0 0 C1.98 0.495 1.98 0.495 4 1 C4.99 0.67 5.98 0.34 7 0 C7.22174933 1.45635371 7.42698698 2.91522956 7.625 4.375 C7.74101563 5.18710938 7.85703125 5.99921875 7.9765625 6.8359375 C7.98429687 7.55007812 7.99203125 8.26421875 8 9 C7.34 9.66 6.68 10.32 6 11 C5.34 10.34 4.68 9.68 4 9 C4.33 8.01 4.66 7.02 5 6 C4.01 6.33 3.02 6.66 2 7 C1.34 6.67 0.68 6.34 0 6 C-0.33 6.99 -0.66 7.98 -1 9 C-0.67 6.03 -0.34 3.06 0 0 Z " fill="#81D6E1" transform="translate(70,127)"/>
<path d="M0 0 C0.33 0 0.66 0 1 0 C1 1.98 1 3.96 1 6 C2.32 6 3.64 6 5 6 C5 6.99 5 7.98 5 9 C5.66 9 6.32 9 7 9 C6.67 10.98 6.34 12.96 6 15 C4.68 14.67 3.36 14.34 2 14 C1.67 12.68 1.34 11.36 1 10 C0.67 10.66 0.34 11.32 0 12 C-0.66 11.67 -1.32 11.34 -2 11 C-1.34 7.37 -0.68 3.74 0 0 Z " fill="#9CC4E3" transform="translate(74,107)"/>
<path d="M0 0 C1.53508028 2.43338652 2.03088304 3.67124507 1.7578125 6.578125 C1.44457031 7.90070313 1.44457031 7.90070313 1.125 9.25 C0.92132813 10.14203125 0.71765625 11.0340625 0.5078125 11.953125 C0.34023437 12.62859375 0.17265625 13.3040625 0 14 C0.99 13.67 1.98 13.34 3 13 C3.66 13.33 4.32 13.66 5 14 C5 15.32 5 16.64 5 18 C2.69 18.66 0.38 19.32 -2 20 C-2.26618595 13.04958914 -1.6120509 6.76485645 0 0 Z " fill="#B5B4EF" transform="translate(92,87)"/>
<path d="M0 0 C-0.33 1.65 -0.66 3.3 -1 5 C-1.33 4.01 -1.66 3.02 -2 2 C-6.82665788 2.85262033 -6.82665788 2.85262033 -10.375 5.875 C-10.97340475 7.90957616 -11.55555925 9.92594319 -12 12 C-12.66 12 -13.32 12 -14 12 C-14.33 12.66 -14.66 13.32 -15 14 C-15.44796936 10.93887604 -15.48881708 8.79494494 -13.83984375 6.11328125 C-10.04463314 1.48331844 -6.27803982 -2.32519993 0 0 Z " fill="#C2B1EF" transform="translate(111,54)"/>
<path d="M0 0 C4.95 0 9.9 0 15 0 C11 5 11 5 8.4375 5.5 C5.61761046 4.92156112 4.8976451 4.07015829 3 2 C2.01 2 1.02 2 0 2 C0 1.34 0 0.68 0 0 Z " fill="#60DDC8" transform="translate(83,139)"/>
<path d="M0 0 C-3.80004169 4.12575955 -6.56036347 6.83178843 -12.31640625 7.11328125 C-14.54872095 7.1237616 -16.76957144 7.08746779 -19 7 C-18.67 5.68 -18.34 4.36 -18 3 C-17.34 3.33 -16.68 3.66 -16 4 C-14.62657169 4.0689472 -13.24997898 4.08467708 -11.875 4.0625 C-10.59625 4.041875 -9.3175 4.02125 -8 4 C-7.67 3.01 -7.34 2.02 -7 1 C-4.53721199 -0.231394 -2.7204945 -0.07159196 0 0 Z " fill="#7EDCA4" transform="translate(519,134)"/>
<path d="M0 0 C0.99 0.33 1.98 0.66 3 1 C3 4.63 3 8.26 3 12 C1.02 11.34 -0.96 10.68 -3 10 C-1 7 -1 7 0 6 C-0.33 6 -0.66 6 -1 6 C-1.042721 4.33388095 -1.04063832 2.66617115 -1 1 C-0.67 0.67 -0.34 0.34 0 0 Z " fill="#C0A9F9" transform="translate(82,78)"/>
<path d="M0 0 C0.99 0.33 1.98 0.66 3 1 C2.34 1 1.68 1 1 1 C0.51891725 2.41601714 0.04021859 3.83284437 -0.4375 5.25 C-0.70433594 6.03890625 -0.97117188 6.8278125 -1.24609375 7.640625 C-1.91954708 9.74821988 -2.49150595 11.84753973 -3 14 C-3.66 14 -4.32 14 -5 14 C-5.66 10.7 -6.32 7.4 -7 4 C-6.030625 3.71125 -5.06125 3.4225 -4.0625 3.125 C-0.89335797 2.35785318 -0.89335797 2.35785318 0 0 Z " fill="#AD97E4" transform="translate(186,40)"/>
<path d="M0 0 C0.33 0 0.66 0 1 0 C1.33 1.65 1.66 3.3 2 5 C3.65 4.67 5.3 4.34 7 4 C6.67 6.31 6.34 8.62 6 11 C4.68 10.34 3.36 9.68 2 9 C1.01 9.66 0.02 10.32 -1 11 C-0.67 7.37 -0.34 3.74 0 0 Z " fill="#AFC0EB" transform="translate(89,101)"/>
<path d="M0 0 C0.99 0.33 1.98 0.66 3 1 C2.95875 1.9075 2.9175 2.815 2.875 3.75 C2.85234178 9.24461844 4.00961818 14.61479886 5 20 C1.04190596 16.04190596 0.70310179 11.60117947 0.375 6.1875 C0.30023438 5.02605469 0.22546875 3.86460938 0.1484375 2.66796875 C0.09945313 1.78753906 0.05046875 0.90710938 0 0 Z " fill="#CABBEC" transform="translate(507,94)"/>
<path d="M0 0 C2.475 0.99 2.475 0.99 5 2 C4.814375 2.53625 4.62875 3.0725 4.4375 3.625 C3.88580676 6.61990614 4.39402556 9.03745829 5 12 C1.76453292 9.84302194 0.62155629 8.48634601 -1 5 C-0.6875 2.1875 -0.6875 2.1875 0 0 Z " fill="#A69FDF" transform="translate(160,46)"/>
<path d="M0 0 C1.41377341 2.63904371 2.37240135 5.07120629 3 8 C3.66 8 4.32 8 5 8 C5.33 7.34 5.66 6.68 6 6 C6.33 6.99 6.66 7.98 7 9 C6.67 9.66 6.34 10.32 6 11 C3.4375 11.625 3.4375 11.625 1 12 C0.63762737 10.37681021 0.28534843 8.7513642 -0.0625 7.125 C-0.25972656 6.22007813 -0.45695313 5.31515625 -0.66015625 4.3828125 C-1 2 -1 2 0 0 Z " fill="#508672" transform="translate(179,66)"/>
<path d="M0 0 C1.5625 1.1875 1.5625 1.1875 3 3 C2.71620667 6.59471546 1.4126173 9.70389298 0 13 C-1.32 11.35 -2.64 9.7 -4 8 C-3.34 7.67 -2.68 7.34 -2 7 C-1.62633887 5.00714063 -1.29259485 3.00636471 -1 1 C-0.67 0.67 -0.34 0.34 0 0 Z " fill="#BFA3FB" transform="translate(101,58)"/>
<path d="M0 0 C2.0625 0.4375 2.0625 0.4375 4 1 C4 2.65 4 4.3 4 6 C2.35 6.66 0.7 7.32 -1 8 C-1.04241723 5.66705225 -1.04092937 3.33297433 -1 1 C-0.67 0.67 -0.34 0.34 0 0 Z " fill="#97BEEA" transform="translate(88,117)"/>
<path d="M0 0 C0.33 0 0.66 0 1 0 C1.23528415 4.58804099 0.53592828 8.5326217 -0.5625 12.94921875 C-1.10431924 15.1395083 -1.10431924 15.1395083 -1 18 C-1.66 18 -2.32 18 -3 18 C-2.88566637 15.74943278 -2.75813564 13.49953326 -2.625 11.25 C-2.55539062 9.99703125 -2.48578125 8.7440625 -2.4140625 7.453125 C-2.04676696 4.39001879 -1.60288714 2.58025734 0 0 Z " fill="#E6DFF9" transform="translate(488,90)"/>
<path d="M0 0 C2.50298434 2.93828597 3.46930939 5.17902761 4 9 C3.01 9.33 2.02 9.66 1 10 C-1 8.1875 -1 8.1875 -3 6 C-3 5.01 -3 4.02 -3 3 C-2.34 3 -1.68 3 -1 3 C-0.67 2.01 -0.34 1.02 0 0 Z " fill="#CEB4FB" transform="translate(514,91)"/>
<path d="M0 0 C4.75 0.75 4.75 0.75 7 3 C7 3.99 7 4.98 7 6 C4.36 5.67 1.72 5.34 -1 5 C-0.67 3.35 -0.34 1.7 0 0 Z " fill="#97A3D6" transform="translate(170,56)"/>
<path d="M0 0 C1.65 0 3.3 0 5 0 C4.67 1.98 4.34 3.96 4 6 C0.52674819 7.1577506 -2.36067448 7.06866652 -6 7 C-6 6.67 -6 6.34 -6 6 C-4.02 6 -2.04 6 0 6 C0 4.02 0 2.04 0 0 Z " fill="#92D6E2" transform="translate(128,110)"/>
<path d="M0 0 C0.33 0 0.66 0 1 0 C1.66 1.98 2.32 3.96 3 6 C4.32 6 5.64 6 7 6 C6.67 8.31 6.34 10.62 6 13 C5.6596875 12.0409375 5.6596875 12.0409375 5.3125 11.0625 C4.14749104 8.72806339 4.14749104 8.72806339 1.375 8.25 C0.59125 8.1675 -0.1925 8.085 -1 8 C-0.67 5.36 -0.34 2.72 0 0 Z " fill="#65AC8E" transform="translate(178,71)"/>
<path d="M0 0 C1.32 0 2.64 0 4 0 C4 2.31 4 4.62 4 7 C2.68 7 1.36 7 0 7 C-0.38133299 5.0085944 -0.71325582 3.00720923 -1 1 C-0.67 0.67 -0.34 0.34 0 0 Z " fill="#493F69" transform="translate(153,39)"/>
<path d="M0 0 C-0.78375 0.4125 -1.5675 0.825 -2.375 1.25 C-5.09431808 2.74934647 -5.09431808 2.74934647 -6.0625 5.125 C-7 7 -7 7 -9.125 7.75 C-10.053125 7.87375 -10.053125 7.87375 -11 8 C-11 5.1875 -11 5.1875 -10 2 C-6.87492865 0.06314259 -3.43782724 -1.71891362 0 0 Z " fill="#7AD99D" transform="translate(512,129)"/>
<path d="M0 0 C0.66 0 1.32 0 2 0 C1.67 2.31 1.34 4.62 1 7 C-0.65 6.67 -2.3 6.34 -4 6 C-4.33 4.68 -4.66 3.36 -5 2 C-4.34 1.67 -3.68 1.34 -3 1 C-2.01 1.33 -1.02 1.66 0 2 C0 1.34 0 0.68 0 0 Z " fill="#B3BEEF" transform="translate(82,100)"/>
<path d="M0 0 C2.31 0.33 4.62 0.66 7 1 C7 1.99 7 2.98 7 4 C3.37 4.66 -0.26 5.32 -4 6 C-4 5.34 -4 4.68 -4 4 C-2.68 3.34 -1.36 2.68 0 2 C0 1.34 0 0.68 0 0 Z " fill="#B4A6E6" transform="translate(192,34)"/>
<path d="M0 0 C-0.3125 2.875 -0.3125 2.875 -1 6 C-1.99 6.66 -2.98 7.32 -4 8 C-3.34 5.69 -2.68 3.38 -2 1 C-3.65 1 -5.3 1 -7 1 C-7.33 2.32 -7.66 3.64 -8 5 C-9.32 4.67 -10.64 4.34 -12 4 C-8.41084094 -0.78554541 -5.58334594 -0.37222306 0 0 Z " fill="#85D49F" transform="translate(160,119)"/>
<path d="M0 0 C0.99 0.33 1.98 0.66 3 1 C2.01 1.495 2.01 1.495 1 2 C0.34444881 4.52733235 0.34444881 4.52733235 0 7 C-1.98 7.33 -3.96 7.66 -6 8 C-6.33 7.01 -6.66 6.02 -7 5 C-5.35 4.67 -3.7 4.34 -2 4 C-2 3.01 -2 2.02 -2 1 C-1.34 0.67 -0.68 0.34 0 0 Z " fill="#7965BD" transform="translate(147,38)"/>
<path d="M0 0 C2.4375 0.8125 2.4375 0.8125 5 2 C5.33 2.99 5.66 3.98 6 5 C5.195625 5.12375 4.39125 5.2475 3.5625 5.375 C2.2940625 5.684375 2.2940625 5.684375 1 6 C0.67 6.66 0.34 7.32 0 8 C-1.125 2.25 -1.125 2.25 0 0 Z M-2 4 C0 5 0 5 0 5 Z " fill="#B399F2" transform="translate(187,32)"/>
<path d="M0 0 C0.33 0.99 0.66 1.98 1 3 C0.67 3.66 0.34 4.32 0 5 C1.65 5 3.3 5 5 5 C5 5.33 5 5.66 5 6 C1.7 5.67 -1.6 5.34 -5 5 C-5 4.01 -5 3.02 -5 2 C-3.35 1.34 -1.7 0.68 0 0 Z " fill="#71D3C9" transform="translate(113,124)"/>
<path d="M0 0 C1.98 0 3.96 0 6 0 C6 0.66 6 1.32 6 2 C5.34 2 4.68 2 4 2 C4 2.99 4 3.98 4 5 C2.02 5 0.04 5 -2 5 C-2 4.34 -2 3.68 -2 3 C-2.66 2.67 -3.32 2.34 -4 2 C-2.68 2 -1.36 2 0 2 C0 1.34 0 0.68 0 0 Z " fill="#64E18B" transform="translate(131,137)"/>
<path d="M0 0 C0.99 0.33 1.98 0.66 3 1 C4.47965926 1.14573058 5.96403843 1.24663268 7.44921875 1.31640625 C8.29677734 1.35830078 9.14433594 1.40019531 10.01757812 1.44335938 C10.89865234 1.48267578 11.77972656 1.52199219 12.6875 1.5625 C13.58017578 1.60568359 14.47285156 1.64886719 15.39257812 1.69335938 C17.59490108 1.79935353 19.79733473 1.90142051 22 2 C22 2.33 22 2.66 22 3 C11.605 3.495 11.605 3.495 1 4 C0.67 2.68 0.34 1.36 0 0 Z " fill="#73D1C9" transform="translate(78,136)"/>
<path d="M0 0 C0.66 0.33 1.32 0.66 2 1 C-2.11378556 8.5273523 -2.11378556 8.5273523 -5.8125 10.5 C-6.534375 10.665 -7.25625 10.83 -8 11 C-7.67 10.34 -7.34 9.68 -7 9 C-6.34 9 -5.68 9 -5 9 C-4.67 7.02 -4.34 5.04 -4 3 C-3.01 2.67 -2.02 2.34 -1 2 C-0.67 1.34 -0.34 0.68 0 0 Z " fill="#85D793" transform="translate(178,105)"/>
<path d="M0 0 C0.5625 1.9375 0.5625 1.9375 1 4 C0 5 0 5 -3.5625 5.0625 C-4.696875 5.041875 -5.83125 5.02125 -7 5 C-6.1875 3.0625 -6.1875 3.0625 -5 1 C-2 0 -2 0 0 0 Z " fill="#68E78B" transform="translate(508,134)"/>
<path d="M0 0 C2.31 0 4.62 0 7 0 C7.33 1.32 7.66 2.64 8 4 C4.37673261 5.2077558 3.35853631 4.54311128 0 3 C0 2.01 0 1.02 0 0 Z " fill="#7BDEC3" transform="translate(516,124)"/>
<path d="M0 0 C0 0.99 0 1.98 0 3 C-0.99 2.67 -1.98 2.34 -3 2 C-3.33 5.63 -3.66 9.26 -4 13 C-4.33 13 -4.66 13 -5 13 C-5.33 9.04 -5.66 5.08 -6 1 C-4.02 0.67 -2.04 0.34 0 0 Z " fill="#D9CFF4" transform="translate(511,80)"/>
<path d="M0 0 C2.97 0 5.94 0 9 0 C8.67 1.65 8.34 3.3 8 5 C7.34 5 6.68 5 6 5 C5.67 4.34 5.34 3.68 5 3 C3.35636866 2.27840576 1.68949614 1.60648579 0 1 C0 0.67 0 0.34 0 0 Z " fill="#96CCDD" transform="translate(519,121)"/>
<path d="M0 0 C0.99 0 1.98 0 3 0 C3.33 1.65 3.66 3.3 4 5 C3.01 5.33 2.02 5.66 1 6 C0.67 6.66 0.34 7.32 0 8 C-1.09658936 4.71023192 -0.79953138 3.28696233 0 0 Z " fill="#6BDF7F" transform="translate(177,86)"/>
<path d="M0 0 C0.66 0.66 1.32 1.32 2 2 C1.67 2.66 1.34 3.32 1 4 C-1.0625 4.625 -1.0625 4.625 -3 5 C-3.99 3.35 -4.98 1.7 -6 0 C-3 -1 -3 -1 0 0 Z " fill="#71E5A6" transform="translate(516,130)"/>
<path d="M0 0 C-0.66 0 -1.32 0 -2 0 C-2 0.99 -2 1.98 -2 3 C-3.65 3.33 -5.3 3.66 -7 4 C-7.33 2.68 -7.66 1.36 -8 0 C-4.71303767 -0.79953138 -3.28976808 -1.09658936 0 0 Z " fill="#9071D3" transform="translate(147,39)"/>
<path d="M0 0 C2.0625 0.4375 2.0625 0.4375 4 1 C3.6875 3.875 3.6875 3.875 3 7 C2.01 7.66 1.02 8.32 0 9 C0.20625 8.4225 0.4125 7.845 0.625 7.25 C1.08661261 4.48032433 0.42944945 3.35438733 -1 1 C-0.67 0.67 -0.34 0.34 0 0 Z " fill="#B4A6DF" transform="translate(89,69)"/>
<path d="M0 0 C2.5 1.125 2.5 1.125 5 3 C5.3125 6.1875 5.3125 6.1875 5 9 C1.13892543 6.42595029 1.05680308 4.38979741 0 0 Z " fill="#A7A1F0" transform="translate(163,50)"/>
<path d="M0 0 C0.66 0.33 1.32 0.66 2 1 C0.02 3.97 0.02 3.97 -2 7 C-3.32 6.67 -4.64 6.34 -6 6 C-4 4 -2 2 0 0 Z " fill="#B5AAEC" transform="translate(533,113)"/>
<path d="M0 0 C1.65 0 3.3 0 5 0 C5 1.32 5 2.64 5 4 C3.125 4.625 3.125 4.625 1 5 C0.34 4.34 -0.32 3.68 -1 3 C-0.67 2.01 -0.34 1.02 0 0 Z " fill="#75DFB7" transform="translate(135,111)"/>
<path d="M0 0 C0.99 0.33 1.98 0.66 3 1 C2.67 3.64 2.34 6.28 2 9 C1.01 9.33 0.02 9.66 -1 10 C-1.125 3.375 -1.125 3.375 0 0 Z " fill="#AFB4DF" transform="translate(76,97)"/>
<path d="M0 0 C0.33 0.66 0.66 1.32 1 2 C2.98 2 4.96 2 7 2 C6.67 2.99 6.34 3.98 6 5 C4.35 5 2.7 5 1 5 C0.67 3.35 0.34 1.7 0 0 Z " fill="#9AC0D4" transform="translate(94,121)"/>
<path d="M0 0 C1.32 0.99 2.64 1.98 4 3 C3.38125 3.2475 2.7625 3.495 2.125 3.75 C-0.35068687 5.20628639 -0.95125002 6.37812506 -2 9 C-3.125 5.25 -3.125 5.25 -2 3 C-1.34 3 -0.68 3 0 3 C0 2.01 0 1.02 0 0 Z " fill="#8CC6DC" transform="translate(74,116)"/>
<path d="M0 0 C2.97 0.495 2.97 0.495 6 1 C6.33 1.99 6.66 2.98 7 4 C4.36 3.67 1.72 3.34 -1 3 C-0.67 2.01 -0.34 1.02 0 0 Z " fill="#B0A3DA" transform="translate(166,35)"/>
<path d="M0 0 C1.65 0 3.3 0 5 0 C4.34 1.32 3.68 2.64 3 4 C1.35 4 -0.3 4 -2 4 C-1.34 2.68 -0.68 1.36 0 0 Z " fill="#73E3A0" transform="translate(140,111)"/>
<path d="M0 0 C2.475 0.99 2.475 0.99 5 2 C4.01 2.33 3.02 2.66 2 3 C1.67 3.99 1.34 4.98 1 6 C0.34 5.67 -0.32 5.34 -1 5 C-0.67 3.35 -0.34 1.7 0 0 Z " fill="#968DC3" transform="translate(160,46)"/>
<path d="M0 0 C1.65 0.33 3.3 0.66 5 1 C4.01 1.495 4.01 1.495 3 2 C3 2.66 3 3.32 3 4 C1.68 4 0.36 4 -1 4 C-0.67 2.68 -0.34 1.36 0 0 Z " fill="#67E379" transform="translate(166,111)"/>
<path d="M0 0 C0.33 0 0.66 0 1 0 C1 2.97 1 5.94 1 9 C-0.32 9.33 -1.64 9.66 -3 10 C-2.01 6.7 -1.02 3.4 0 0 Z " fill="#80CD92" transform="translate(172,99)"/>
<path d="M0 0 C0.66 0 1.32 0 2 0 C2.66 0.66 3.32 1.32 4 2 C4.66 2 5.32 2 6 2 C5.67 2.99 5.34 3.98 5 5 C4.01 5.33 3.02 5.66 2 6 C1.34 4.02 0.68 2.04 0 0 Z " fill="#3E6A5D" transform="translate(180,68)"/>
<path d="M0 0 C0.33 0.99 0.66 1.98 1 3 C1.66 3 2.32 3 3 3 C3.33 2.34 3.66 1.68 4 1 C3.67 3.31 3.34 5.62 3 8 C2.34 8 1.68 8 1 8 C0.67 5.36 0.34 2.72 0 0 Z " fill="#998AC6" transform="translate(180,46)"/>
<path d="M0 0 C0.66 0 1.32 0 2 0 C2.33 2.31 2.66 4.62 3 7 C2.01 7 1.02 7 0 7 C-0.93423645 3.98968256 -1.04449911 3.13349732 0 0 Z " fill="#A691CE" transform="translate(181,19)"/>
<path d="M0 0 C1.98 0 3.96 0 6 0 C5.34 1.32 4.68 2.64 4 4 C2.35 4 0.7 4 -1 4 C-0.34 3.34 0.32 2.68 1 2 C0.67 1.34 0.34 0.68 0 0 Z " fill="#6EE4AA" transform="translate(121,125)"/>
<path d="M0 0 C1.125 1.5625 1.125 1.5625 2 4 C1.125 7.75 1.125 7.75 0 11 C-1.16461426 7.50615721 -1.13568319 4.66344611 -1 1 C-0.67 0.67 -0.34 0.34 0 0 Z " fill="#83DA97" transform="translate(180,91)"/>
<path d="M0 0 C0.66 0.33 1.32 0.66 2 1 C2 2.98 2 4.96 2 7 C0.68 6.67 -0.64 6.34 -2 6 C-1.34 4.02 -0.68 2.04 0 0 Z " fill="#5E4F8B" transform="translate(151,39)"/>
</svg>
